<svg width="145" height="53" viewBox="0 0 145 53" fill="none" xmlns="http://www.w3.org/2000/svg">
<path d="M17.1629 7.28669C17.1629 7.28669 18.8909 8.68555 19.8989 9.63184C19.8371 9.85812 19.5903 9.96098 19.3023 9.96098H0.952571L0.788 9.38498H15.6406L17.1629 7.28669ZM7.96743 6.36098C14.2211 6.13469 11.732 11.0307 9.09886 9.24098C8.996 8.21241 8.44057 7.12212 7.844 6.46384L7.96743 6.36098ZM14.7766 16.585L16.4223 15.1244L18.9526 17.5313C18.7674 17.7164 18.5617 17.7781 18.0886 17.7987C15.8874 18.4158 12.2463 18.9507 9.83943 19.177L9.73657 19.033C11.444 18.4158 13.8303 17.3461 15.0234 16.585H14.7766ZM12.3903 18.3953C12.3491 18.7038 12.1434 18.8684 11.732 18.9301V22.6947C11.732 24.6901 11.2177 25.7187 7.78229 25.9861C7.7 25.0604 7.57657 24.4227 7.16514 23.9701C6.77429 23.5587 6.32171 23.2501 5.04629 23.0238V22.777C5.04629 22.777 7.72057 22.9416 8.19371 22.9416C8.46114 22.9416 8.564 22.8593 8.564 22.6124V18.1073L12.3903 18.3953ZM13.1103 11.401L14.4063 9.96098L17.1834 12.0181C17.06 12.1827 16.8131 12.3678 16.3811 12.4707V15.145C16.3606 15.289 14.7971 15.7416 13.8509 15.7416H13.316V11.401H13.1103ZM7.16514 15.289C7.16514 15.5358 5.80743 16.1736 4.59371 16.1736H4.18229V10.2284L7.32971 11.401H14.4474V11.977H7.16514V15.289ZM14.7354 14.3221V14.8981H5.84857V14.3221H14.7354ZM16.1343 16.585V17.161H2.516L2.33086 16.585H16.1343ZM17.3686 18.2718C17.3686 18.2718 19.0966 19.6296 20.1251 20.5347C20.084 20.761 19.8371 20.8638 19.5286 20.8638H0.664571L0.5 20.2878H15.8463L17.3686 18.2718Z" fill="#BF9D7D"/>
<path d="M61.4531 10.8044C61.3091 11.0307 60.8977 11.1953 60.2394 10.8867L60.8771 10.7838C59.828 12.2856 57.5034 14.6101 55.6726 15.7416L55.652 15.4947H56.7217C56.6394 16.7084 56.2691 17.3873 55.796 17.593L54.7469 15.2067C54.7469 15.2067 55.1789 15.0833 55.364 14.9598C56.5777 13.9107 58.244 10.825 58.7377 9.15869L61.4531 10.8044ZM60.3011 7.61584C60.1983 7.86269 59.828 8.06841 59.1286 7.82155L59.8074 7.71869C58.8406 8.91184 57.0509 10.537 55.6726 11.257V11.0307H56.7834C56.7011 12.265 56.3309 12.9438 55.8577 13.1496L54.788 10.7221C54.788 10.7221 55.1377 10.6398 55.3229 10.5164C56.0634 9.81698 57.0097 7.49241 57.236 6.29927L60.3011 7.61584ZM48.5343 10.8044C48.3903 11.0513 47.9789 11.1953 47.3206 10.9073L47.9583 10.8044C46.868 12.3061 44.4406 14.6307 42.548 15.7621L42.5274 15.5153H43.5766C43.4943 16.729 43.124 17.4078 42.6509 17.6136L41.6017 15.2273C41.6017 15.2273 42.0543 15.1038 42.2394 14.9804C43.5149 13.9313 45.3046 10.8456 45.8394 9.15869L48.5343 10.8044ZM47.1766 7.63641C47.0737 7.88327 46.7034 8.08898 45.9834 7.84212L46.6623 7.73927C45.716 8.93241 43.9469 10.537 42.6097 11.2981L42.5891 11.0513H43.6794C43.5971 12.265 43.2269 12.9233 42.7743 13.1496L41.7251 10.7633C41.7251 10.7633 42.0749 10.6604 42.26 10.537C43.0006 9.83755 43.9263 7.53355 44.1526 6.34041L47.1766 7.63641ZM50.3857 21.6044C50.2211 21.8513 49.9537 21.9336 49.4189 21.8513C47.2383 23.7027 43.9263 24.649 41.4989 24.9164L41.4166 24.7107C43.3297 23.641 45.572 21.625 47.0943 19.4033L50.3857 21.6044ZM53.6566 20.5758C62.3994 19.465 61.8851 26.0067 58.5731 24.7724C57.4829 23.4558 55.5286 21.769 53.5743 20.761L53.6566 20.5758ZM55.2817 15.145C56.0634 15.1244 57.8943 15.0216 59.684 14.8776L59.7046 15.1244C59.0051 15.5564 57.4417 16.4616 55.8783 17.2638L55.2817 15.145ZM55.1377 10.8044C55.9194 10.7838 57.7091 10.681 59.4166 10.5576L59.4371 10.8044C58.82 11.2364 57.3594 12.121 55.8783 12.9233L55.1377 10.8044ZM58.9023 13.0261C62.9549 15.2273 60.692 18.3747 59.1697 16.6878C59.252 15.4947 58.9846 14.0958 58.6554 13.1084L58.9023 13.0261ZM42.0954 15.2067C42.9389 15.1861 44.9343 15.0627 46.9091 14.9187L46.9297 15.1656C46.1274 15.6181 44.4406 16.5233 42.692 17.3256L42.0954 15.2067ZM42.0954 10.825C42.8771 10.8044 44.6669 10.7016 46.3743 10.5781L46.3949 10.825C45.7777 11.257 44.3171 12.1416 42.836 12.9438L42.0954 10.825ZM53.9034 17.2844C53.8623 17.5518 53.7183 17.7781 53.1423 17.8604V25.2867C53.1423 25.4924 51.764 25.9861 50.5091 25.9861H49.9743V16.9553L53.9034 17.2844ZM58.388 16.9347C58.388 16.9347 60.116 18.2307 61.1651 19.1153C61.1034 19.3416 60.8771 19.4444 60.5686 19.4444H41.8897L41.7251 18.8684H56.8657L58.388 16.9347ZM45.7366 13.0673C49.6863 15.2067 47.4851 18.3747 46.004 16.729C46.1686 15.5358 45.8806 14.1164 45.4897 13.1496L45.7366 13.0673ZM53.4303 6.66955C53.3686 7.01927 53.1217 7.20441 52.6691 7.24555C52.2166 7.88327 51.3937 8.80898 50.9 9.40555H50.3446C50.3857 8.60327 50.3857 7.22498 50.3651 6.29927L53.4303 6.66955ZM51.9491 9.09698L52.9983 7.98612L55.1377 9.61127C55.0349 9.73469 54.8291 9.85812 54.5206 9.94041V16.0913C54.5 16.2353 53.3274 16.7084 52.5251 16.7084H52.1137V9.09698H51.9491ZM50.6737 16.3793C50.6737 16.6056 49.6863 17.0993 48.7194 17.0993H48.3903V8.15069L50.756 9.09698H53.5331V9.67298H50.6737V16.3793ZM53.348 15.145V15.721H49.3777V15.145H53.348ZM53.348 12.0798V12.6558H49.3777V12.0798H53.348Z" fill="#BF9D7D"/>
<path d="M94.7377 12.1004H92.1663V8.29469H94.7377V12.1004ZM98.0703 8.29469V12.1004H95.54V8.29469H98.0703ZM96.2806 19.1153C96.2806 19.1153 97.5354 20.1438 98.276 20.8638C98.2143 21.0901 98.0086 21.193 97.7206 21.193H92.3309L92.1663 20.617H95.1903L96.2806 19.1153ZM84.1846 19.5678C84.5137 19.5678 84.596 19.5678 84.8223 19.1358C85.2749 18.313 85.2749 18.313 88.9571 9.30269L89.2657 9.36441C88.5663 12.0593 87.3731 16.9758 87.1468 18.2307C86.9823 18.9918 86.8589 19.7941 86.8589 20.3496C86.9206 21.5633 87.8669 22.201 87.8257 24.1347C87.7846 25.2456 86.9823 26.0067 85.8303 26.0067C85.316 26.0067 84.6988 25.7598 84.4931 24.937C84.9251 22.7564 84.8429 20.6376 84.3491 20.2878C84.0611 20.0821 83.6908 19.9793 83.2588 19.9381V19.5678C83.2588 19.5678 83.9583 19.5678 84.1846 19.5678ZM82.8886 11.4421C88.9777 11.8124 86.7766 16.4616 84.308 14.7953C84.0817 13.6227 83.3823 12.3678 82.7446 11.545L82.8886 11.4421ZM84.5754 6.69012C90.7263 7.26612 88.4428 11.8947 85.9743 10.1873C85.748 8.97355 85.0486 7.67755 84.4108 6.79298L84.5754 6.69012ZM89.2246 10.7016L92.0634 11.7507H98.3994L99.7366 10.2284L102.102 12.121C101.958 12.3267 101.711 12.4913 101.238 12.5736V25.1221C101.238 25.2661 100.354 25.8421 98.9754 25.8421H98.5228V12.3267H91.8166V25.2867C91.8166 25.4718 91.0143 25.9656 89.6977 25.9656H89.2246V10.7016ZM94.7377 14.2193C94.7377 15.7827 94.4497 17.9838 91.7754 19.2798L91.5903 19.0536C92.6394 17.6136 92.6394 15.7621 92.6394 14.2193V12.0593H94.7377V14.2193ZM97.6177 12.0593C97.6177 12.2856 97.6177 12.5324 97.6177 12.697V16.1118C97.6177 16.3381 97.6589 16.4204 97.8851 16.4204H98.2966C98.42 16.4204 98.5846 16.3998 98.6874 16.3998C98.7903 16.3998 98.996 16.3998 99.0783 16.3793C99.2017 16.3793 99.3869 16.3381 99.5309 16.297H99.716L99.7983 16.3381C100.313 16.5438 100.477 16.7701 100.477 17.161C100.477 17.9427 99.8394 18.2513 98.0086 18.2513H97.1651C95.7251 18.2513 95.5606 17.8193 95.5606 16.585V12.0593H97.6177ZM100.004 23.4147V23.9907H90.8086V23.4147H100.004ZM99.9629 6.27869C99.9629 6.27869 101.485 7.45127 102.411 8.27412C102.349 8.50041 102.123 8.60327 101.835 8.60327H88.7309L88.5663 8.02727H98.6257L99.9629 6.27869Z" fill="#BF9D7D"/>
<path d="M132.198 6.42269C138.987 6.52555 136.601 11.8124 133.803 9.98155C133.577 8.70612 132.815 7.38955 132.075 6.52555L132.198 6.42269ZM125.739 8.93241L129.154 10.0844H128.722V15.3096C128.722 18.745 128.475 23.2296 124.052 26.0478L123.887 25.9244C125.657 22.8181 125.739 18.8478 125.739 15.3096V8.93241ZM141.003 8.13012C141.003 8.13012 142.607 9.44669 143.533 10.3313C143.471 10.5576 143.245 10.6604 142.957 10.6604H127.138V10.0844H139.583L141.003 8.13012ZM140.139 12.265C140.139 12.265 141.846 13.6638 142.834 14.5896C142.772 14.8158 142.546 14.9187 142.237 14.9187H135.222V14.3427H138.637L140.139 12.265ZM137.423 11.1953C137.382 11.4833 137.259 11.689 136.683 11.7918V18.8067H133.7V10.9073L137.423 11.1953ZM139.46 23.2913V23.8673H130.47V23.2913H139.46ZM129.401 17.2433L132.383 18.3541H138.123L139.46 16.8524L141.929 18.7244C141.805 18.9096 141.599 19.033 141.126 19.1358V25.2456C141.126 25.369 140.242 25.8421 138.74 25.8421H138.226V18.9301H132.178V25.3896C132.178 25.5541 131.334 26.0067 129.915 26.0067H129.401V17.2433Z" fill="#BF9D7D"/>
<path d="M0.728692 42.722C0.576231 42.722 0.5 42.6474 0.5 42.4981C0.5 42.4279 0.52541 42.3358 0.576231 42.2216C0.635521 42.0988 0.686342 41.989 0.728692 41.8925C0.982795 41.3395 1.31736 40.6855 1.7324 39.9307C2.1559 39.1758 2.65987 38.3243 3.24431 37.3763C3.01562 37.3763 2.90127 37.3061 2.90127 37.1657C2.90127 37.0165 2.98174 36.9419 3.14267 36.9419L3.52382 36.955C3.7864 36.5425 4.01085 36.1957 4.19719 35.9149C4.38354 35.634 4.53176 35.4145 4.64187 35.2565C4.82822 35.002 5.02726 34.7474 5.23902 34.4929C5.45924 34.2295 5.70064 33.975 5.96321 33.7292C6.3613 33.6414 6.76787 33.58 7.1829 33.5449C7.60641 33.501 8.03415 33.479 8.46612 33.479C9.22843 33.479 9.76204 33.5185 10.067 33.5975C10.1771 33.6239 10.2491 33.6546 10.283 33.6897C10.3253 33.7248 10.3465 33.7731 10.3465 33.8345C10.3465 33.9838 10.283 34.0584 10.1559 34.0584C10.0543 34.0584 9.85945 34.0364 9.57147 33.9925C9.28348 33.9399 8.84304 33.9135 8.25013 33.9135C7.96215 33.9135 7.64452 33.9311 7.29725 33.9662C6.94997 34.0013 6.56882 34.054 6.15379 34.1242C5.79804 34.4051 5.08232 35.3487 4.00662 36.955H7.11938C7.2549 36.955 7.32266 37.0252 7.32266 37.1657C7.32266 37.3061 7.2549 37.3763 7.11938 37.3763H3.73981C2.51165 39.325 1.60958 40.9313 1.03362 42.1953C3.32054 41.6686 5.04844 41.4053 6.21731 41.4053C7.03044 41.4053 7.437 41.6072 7.437 42.011C7.437 42.1514 7.36924 42.2216 7.23372 42.2216C7.12361 42.2216 7.06432 42.1778 7.05585 42.09C7.04738 41.9934 6.97115 41.932 6.82716 41.9056C6.69164 41.8705 6.47565 41.853 6.1792 41.853C5.80651 41.853 5.38724 41.8837 4.92139 41.9451C4.464 41.9978 3.97274 42.068 3.44759 42.1558C2.70222 42.2699 2.09661 42.3928 1.63076 42.5245C1.1649 42.6561 0.864214 42.722 0.728692 42.722Z" fill="#BF9D7D"/>
<path d="M9.85574 42.564C9.72022 42.564 9.65246 42.5069 9.65246 42.3928C9.65246 42.3489 9.6694 42.2963 9.70328 42.2348C9.73716 42.1646 9.76681 42.1075 9.79222 42.0636L10.9357 39.6805C11.4269 38.6447 11.6726 38.0698 11.6726 37.9557C11.6726 37.8328 11.7319 37.7713 11.8504 37.7713C12.0114 37.7713 12.0918 37.8591 12.0918 38.0347C12.0918 38.0961 12.0537 38.2278 11.9775 38.4297C11.9013 38.6316 11.8039 38.8598 11.6853 39.1143C11.482 39.5708 11.3126 39.9219 11.1771 40.1677C11.4312 39.8604 11.6895 39.5708 11.9521 39.2987C12.2147 39.0266 12.4815 38.7676 12.7525 38.5218C13.5572 37.7933 14.1755 37.429 14.6075 37.429C14.9039 37.429 15.0521 37.5738 15.0521 37.8635C15.0521 38.1268 14.8362 38.7193 14.4042 39.641C13.9722 40.5714 13.7562 41.1595 13.7562 41.4053C13.7562 41.5194 13.7943 41.5765 13.8706 41.5765C13.896 41.5765 13.9341 41.5677 13.9849 41.5501C14.0442 41.5238 14.1035 41.5106 14.1628 41.5106C14.3068 41.5106 14.3788 41.5809 14.3788 41.7213C14.3788 41.8969 14.1967 41.9846 13.8325 41.9846C13.663 41.9846 13.5402 41.9451 13.464 41.8661C13.3878 41.7784 13.3497 41.6643 13.3497 41.5238C13.3497 41.1025 13.5572 40.4617 13.9722 39.6015C14.3872 38.7501 14.5948 38.2366 14.5948 38.061C14.5948 37.9557 14.5566 37.903 14.4804 37.903C14.2941 37.903 13.9934 38.0654 13.5783 38.3902C13.1294 38.7413 12.6805 39.1451 12.2316 39.6015C11.7827 40.0579 11.355 40.5802 10.9484 41.1683L10.059 42.4455C10.0082 42.5245 9.94044 42.564 9.85574 42.564Z" fill="#BF9D7D"/>
<path d="M18.7552 37.0472C18.6112 37.0472 18.5392 36.9726 18.5392 36.8234C18.5392 36.7795 18.5689 36.7005 18.6281 36.5864C18.6874 36.4635 18.7552 36.3406 18.8314 36.2177C18.9077 36.0948 18.9669 36.0114 19.0093 35.9675C19.1533 35.8007 19.2634 35.6954 19.3396 35.6515C19.4243 35.6076 19.5006 35.5857 19.5683 35.5857C19.7462 35.5857 19.8351 35.6691 19.8351 35.8359C19.8351 35.8973 19.797 35.9719 19.7208 36.0597C19.653 36.1387 19.5726 36.2133 19.4794 36.2835C19.3439 36.3713 19.2592 36.4415 19.2253 36.4942L18.9458 36.9024C18.9373 36.9375 18.9161 36.9726 18.8822 37.0077C18.8568 37.034 18.8145 37.0472 18.7552 37.0472ZM14.2703 46.6193C14.0416 46.6193 13.8552 46.5359 13.7113 46.3691C13.5588 46.2111 13.4487 46.0136 13.3809 45.7766C13.3047 45.5484 13.2666 45.3289 13.2666 45.1183C13.2666 44.8637 13.292 44.6311 13.3428 44.4205C13.4106 44.1132 13.5207 43.9596 13.6731 43.9596C13.8087 43.9596 13.8764 44.0255 13.8764 44.1571C13.8764 44.1922 13.8595 44.2405 13.8256 44.302C13.7917 44.3634 13.7663 44.4161 13.7494 44.46C13.6986 44.6004 13.6731 44.7803 13.6731 44.9998C13.6731 45.2719 13.724 45.5308 13.8256 45.7766C13.9272 46.0312 14.0882 46.1584 14.3084 46.1584C14.4778 46.1584 14.6472 46.0882 14.8166 45.9478C14.986 45.8073 15.1512 45.6274 15.3121 45.4079C15.4646 45.1973 15.6086 44.9735 15.7441 44.7365C15.8711 44.4995 15.977 44.28 16.0617 44.0781C16.1803 43.806 16.2989 43.512 16.4174 43.196C16.536 42.88 16.6419 42.5771 16.7351 42.2875C16.8367 41.9978 16.9045 41.7652 16.9384 41.5896C17.0061 41.2385 17.0739 40.8918 17.1416 40.5495C17.2179 40.1984 17.2941 39.8473 17.3703 39.4962C17.5143 38.8729 17.6583 38.4384 17.8023 38.1927C17.9463 37.9469 18.0776 37.824 18.1962 37.824C18.2555 37.824 18.3232 37.8503 18.3995 37.903C18.4842 37.9557 18.5265 38.0171 18.5265 38.0873C18.5265 38.1225 18.4418 38.2892 18.2724 38.5877C18.1792 38.7544 18.1072 38.8861 18.0564 38.9827C18.0056 39.0792 17.9717 39.1451 17.9548 39.1802C17.9294 39.2416 17.8912 39.3733 17.8404 39.5752C17.7896 39.777 17.7303 40.0184 17.6626 40.2993C17.6033 40.5714 17.5397 40.8523 17.472 41.142C17.4042 41.4316 17.3407 41.6994 17.2814 41.9451C17.2306 42.1821 17.184 42.3665 17.1416 42.4981C17.0061 42.9546 16.8452 43.4022 16.6588 43.8411C16.4725 44.28 16.2735 44.6794 16.0617 45.0393C15.4434 46.0926 14.8462 46.6193 14.2703 46.6193Z" fill="#BF9D7D"/>
<path d="M21.1909 42.169C20.5048 42.169 20.1618 41.7696 20.1618 40.9708C20.1618 40.6022 20.2465 40.2159 20.4159 39.8122C20.5853 39.4084 20.8098 39.0353 21.0893 38.693C21.3688 38.3419 21.6779 38.0566 22.0167 37.8372C22.364 37.6177 22.7155 37.508 23.0713 37.508C23.3847 37.508 23.6134 37.6309 23.7573 37.8767C23.9013 38.1225 23.9733 38.3946 23.9733 38.693C23.9733 39.088 23.8971 39.4918 23.7446 39.9043C23.5922 40.3081 23.3847 40.6812 23.1221 41.0235C22.8595 41.3658 22.5631 41.6423 22.2327 41.853C21.9024 42.0636 21.5551 42.169 21.1909 42.169ZM21.1782 41.7476C21.229 41.7476 21.2587 41.7433 21.2671 41.7345C21.5975 41.6906 21.9024 41.5677 22.1819 41.3658C22.4614 41.1639 22.7028 40.9138 22.9061 40.6153C23.1179 40.3081 23.2788 39.9789 23.3889 39.6278C23.499 39.2767 23.5541 38.93 23.5541 38.5877C23.5541 38.3858 23.499 38.2278 23.3889 38.1137C23.2788 37.9996 23.139 37.9425 22.9696 37.9425C22.724 37.9425 22.4614 38.0478 22.1819 38.2585C21.9109 38.4692 21.6525 38.7369 21.4069 39.0617C21.1697 39.3864 20.9749 39.7288 20.8225 40.0887C20.67 40.4398 20.5938 40.7558 20.5938 41.0367C20.5938 41.5106 20.7886 41.7476 21.1782 41.7476Z" fill="#BF9D7D"/>
<path d="M25.4853 46.5929C24.9687 46.5929 24.7103 46.2769 24.7103 45.6449C24.7103 45.1095 24.8204 44.5916 25.0407 44.0913C25.0745 44.0035 25.1296 43.9596 25.2058 43.9596C25.3583 43.9596 25.4345 44.0298 25.4345 44.1703C25.4345 44.2054 25.4218 44.2493 25.3964 44.302C25.3795 44.3634 25.3583 44.4292 25.3329 44.4995C25.2736 44.6662 25.227 44.8418 25.1931 45.0261C25.1592 45.2104 25.1423 45.4036 25.1423 45.6054C25.1423 45.8337 25.172 45.9873 25.2312 46.0663C25.2905 46.1453 25.3668 46.1848 25.4599 46.1848C25.6802 46.1848 25.9385 46.0794 26.2349 45.8688C26.5399 45.6581 26.8533 45.3246 27.1751 44.8681C27.4038 44.5433 27.641 44.1571 27.8866 43.7095C28.1322 43.2618 28.3948 42.7483 28.6743 42.169C29.047 41.4053 29.3901 40.6285 29.7034 39.8385C29.4917 40.1194 29.2715 40.3915 29.0428 40.6548C28.8141 40.9182 28.5685 41.1639 28.3059 41.3921C27.6029 42.0154 27.0184 42.327 26.5526 42.327C25.9935 42.327 25.714 41.9934 25.714 41.3263C25.714 41.0893 25.7564 40.804 25.8411 40.4705C25.9343 40.1369 26.0613 39.7551 26.2222 39.325C26.2477 39.2548 26.2604 39.1977 26.2604 39.1538C26.2604 39.1012 26.2731 39.0485 26.2985 38.9958C26.434 38.6886 26.6585 38.3463 26.9718 37.9688C27.0396 37.8898 27.0989 37.8503 27.1497 37.8503C27.2768 37.8503 27.3403 37.9469 27.3403 38.14C26.5187 39.3952 26.1079 40.4573 26.1079 41.3263C26.1079 41.695 26.2477 41.8793 26.5272 41.8793C26.8406 41.8793 27.2768 41.6555 27.8358 41.2078C28.2339 40.8918 28.6023 40.5363 28.9411 40.1413C29.2799 39.7375 29.5849 39.3206 29.8559 38.8905C30.0423 38.6008 30.1905 38.3463 30.3006 38.1268C30.4192 37.8986 30.4912 37.745 30.5166 37.666C30.5589 37.5343 30.6182 37.4685 30.6944 37.4685C30.8554 37.4685 30.9358 37.5387 30.9358 37.6792C30.9358 37.7494 30.902 37.8767 30.8342 38.061C30.7749 38.2366 30.6987 38.4472 30.6055 38.693C30.47 39.0529 30.2752 39.5357 30.0211 40.1413C29.767 40.747 29.4493 41.4668 29.0682 42.3006C28.5939 43.3364 28.128 44.1835 27.6706 44.8418C27.3318 45.3421 26.9591 45.7591 26.5526 46.0926C26.1545 46.4262 25.7987 46.5929 25.4853 46.5929Z" fill="#BF9D7D"/>
<path d="M31.8369 42.6825C31.6929 42.6825 31.6209 42.6122 31.6209 42.4718C31.6209 42.463 31.6718 42.3533 31.7734 42.1426C31.875 41.932 32.019 41.6204 32.2054 41.2078L32.8533 39.799C33.1159 39.2284 33.3022 38.7764 33.4124 38.4428C33.5309 38.1093 33.5902 37.8942 33.5902 37.7977C33.5902 37.6572 33.658 37.587 33.7935 37.587C33.929 37.587 33.9968 37.6572 33.9968 37.7977C33.9968 37.9118 33.9587 38.0917 33.8824 38.3375C33.8147 38.5745 33.7003 38.8817 33.5394 39.2592L32.8914 40.7865C34.6617 38.4692 35.9957 37.3105 36.8936 37.3105C37.063 37.3105 37.1943 37.3851 37.2874 37.5343C37.3806 37.6748 37.4272 37.8328 37.4272 38.0083C37.4272 38.4297 37.135 39.1626 36.5505 40.2072C36.9994 39.7332 37.4526 39.2592 37.91 38.7852C38.3758 38.3024 38.8417 37.8284 39.3075 37.3632C39.4261 37.2491 39.5235 37.192 39.5998 37.192C39.7014 37.192 39.7861 37.2447 39.8539 37.35C39.9216 37.4466 39.9555 37.5519 39.9555 37.666C39.9555 37.7538 39.9174 37.8635 39.8412 37.9952C39.731 38.1883 39.6294 38.4209 39.5362 38.693C39.4431 38.9563 39.3372 39.2548 39.2186 39.5883C39.0831 39.9658 38.9857 40.2949 38.9264 40.5758C38.8671 40.8567 38.8374 41.0849 38.8374 41.2605C38.8374 41.4799 38.8883 41.6423 38.9899 41.7476C39.0915 41.8442 39.1932 41.8925 39.2948 41.8925C39.4727 41.8925 39.6675 41.8442 39.8793 41.7476C40.091 41.6511 40.2647 41.5545 40.4002 41.458C40.6712 41.2736 40.955 41.0454 41.2514 40.7733C41.5479 40.4924 41.8316 40.2115 42.1027 39.9307C42.1365 39.8955 42.1874 39.878 42.2551 39.878C42.3822 39.878 42.4457 39.9307 42.4457 40.036C42.4457 40.1325 42.3864 40.2423 42.2678 40.3652C41.929 40.7163 41.6241 41.0191 41.3531 41.2736C41.082 41.5194 40.8237 41.7213 40.5781 41.8793C40.4171 41.9759 40.2223 42.0768 39.9936 42.1821C39.7649 42.2875 39.5193 42.3401 39.2567 42.3401C39.0111 42.3401 38.8036 42.2611 38.6342 42.1031C38.4732 41.9451 38.3928 41.6072 38.3928 41.0893C38.3928 40.8874 38.4266 40.6504 38.4944 40.3783C38.5622 40.0974 38.6638 39.7858 38.7993 39.4435L39.4727 37.7845L37.6559 39.6805C37.4441 39.8999 37.2705 40.0843 37.135 40.2335C36.9994 40.3827 36.8893 40.5056 36.8046 40.6022C36.6437 40.7777 36.4997 40.9489 36.3727 41.1156C36.2541 41.2824 36.1524 41.4273 36.0677 41.5501C36.0084 41.6467 35.9407 41.695 35.8644 41.695C35.7205 41.695 35.6485 41.6335 35.6485 41.5106C35.6485 41.2385 35.8856 40.6109 36.3599 39.6278C36.8343 38.6447 37.0714 38.0566 37.0714 37.8635C37.0714 37.7757 36.9783 37.7318 36.7919 37.7318C36.0381 37.7318 34.6956 39.009 32.7644 41.5633C32.6035 41.8003 32.3367 42.1558 31.964 42.6298C31.9386 42.6649 31.8962 42.6825 31.8369 42.6825Z" fill="#BF9D7D"/>
<path d="M44.2271 42.4718C43.8714 42.4718 43.5918 42.3445 43.3886 42.09C43.1853 41.8354 43.0836 41.5238 43.0836 41.1551C43.0836 40.5232 43.2869 39.8736 43.6935 39.2065C43.8036 39.0222 43.9307 38.8422 44.0746 38.6667C44.2186 38.4823 44.3753 38.3068 44.5447 38.14C44.7988 37.8855 45.0656 37.6748 45.3452 37.508C45.6247 37.3412 45.8957 37.2578 46.1583 37.2578C46.5903 37.2578 46.8062 37.4685 46.8062 37.8898C46.8062 38.4165 46.5098 38.8949 45.9169 39.325C45.3663 39.7112 44.8242 39.9043 44.2906 39.9043C44.1975 39.9043 44.1128 39.8999 44.0365 39.8912C43.9688 39.8736 43.9052 39.856 43.8459 39.8385C43.7612 40.0053 43.685 40.2203 43.6173 40.4837C43.5495 40.747 43.5156 40.9752 43.5156 41.1683C43.5156 41.7476 43.7612 42.0373 44.2525 42.0373C44.6506 42.0373 45.0275 41.9671 45.3833 41.8266C45.739 41.6774 46.1625 41.4009 46.6538 40.9971C46.9587 40.7514 47.1874 40.5539 47.3399 40.4047C47.4923 40.2554 47.6575 40.0974 47.8354 39.9307C47.8862 39.8955 47.9328 39.878 47.9751 39.878C48.0175 39.878 48.0598 39.8912 48.1022 39.9175C48.1445 39.9438 48.1657 39.9833 48.1657 40.036C48.1657 40.1325 48.081 40.2686 47.9116 40.4442C47.7676 40.5846 47.6151 40.7338 47.4542 40.8918C47.2933 41.041 47.0392 41.2517 46.6919 41.5238C46.3192 41.8223 45.9127 42.0549 45.4722 42.2216C45.0318 42.3884 44.6167 42.4718 44.2271 42.4718ZM44.2144 39.483C44.4854 39.483 44.7438 39.4391 44.9894 39.3513C45.235 39.2636 45.468 39.1363 45.6882 38.9695C46.1795 38.5921 46.4251 38.2366 46.4251 37.903C46.4251 37.7538 46.3362 37.6792 46.1583 37.6792C45.8195 37.6792 45.4256 37.8942 44.9767 38.3243C44.7565 38.535 44.5744 38.7281 44.4304 38.9037C44.2949 39.0704 44.1678 39.2548 44.0492 39.4567C44.1001 39.4742 44.1551 39.483 44.2144 39.483Z" fill="#BF9D7D"/>
<path d="M48.2491 42.564C48.1136 42.564 48.0458 42.5069 48.0458 42.3928C48.0458 42.3489 48.0627 42.2963 48.0966 42.2348C48.1305 42.1646 48.1601 42.1075 48.1855 42.0636L49.329 39.6805C49.8203 38.6447 50.0659 38.0698 50.0659 37.9557C50.0659 37.8328 50.1252 37.7713 50.2438 37.7713C50.4047 37.7713 50.4852 37.8591 50.4852 38.0347C50.4852 38.0961 50.4471 38.2278 50.3708 38.4297C50.2946 38.6316 50.1972 38.8598 50.0786 39.1143C49.8753 39.5708 49.7059 39.9219 49.5704 40.1677C49.8245 39.8604 50.0828 39.5708 50.3454 39.2987C50.608 39.0266 50.8748 38.7676 51.1458 38.5218C51.9505 37.7933 52.5688 37.429 53.0008 37.429C53.2972 37.429 53.4455 37.5738 53.4455 37.8635C53.4455 38.1268 53.2295 38.7193 52.7975 39.641C52.3655 40.5714 52.1495 41.1595 52.1495 41.4053C52.1495 41.5194 52.1877 41.5765 52.2639 41.5765C52.2893 41.5765 52.3274 41.5677 52.3782 41.5501C52.4375 41.5238 52.4968 41.5106 52.5561 41.5106C52.7001 41.5106 52.7721 41.5809 52.7721 41.7213C52.7721 41.8969 52.59 41.9846 52.2258 41.9846C52.0564 41.9846 51.9336 41.9451 51.8573 41.8661C51.7811 41.7784 51.743 41.6643 51.743 41.5238C51.743 41.1025 51.9505 40.4617 52.3655 39.6015C52.7806 38.7501 52.9881 38.2366 52.9881 38.061C52.9881 37.9557 52.95 37.903 52.8737 37.903C52.6874 37.903 52.3867 38.0654 51.9717 38.3902C51.5228 38.7413 51.0738 39.1451 50.6249 39.6015C50.176 40.0579 49.7483 40.5802 49.3417 41.1683L48.4524 42.4455C48.4015 42.5245 48.3338 42.564 48.2491 42.564Z" fill="#BF9D7D"/>
<path d="M55.0268 43.1433C54.8658 43.1433 54.7854 43.0116 54.7854 42.7483C54.7854 42.3621 54.9929 41.6862 55.4079 40.7207C55.8314 39.7551 56.4582 38.4911 57.2883 36.9287C56.9664 36.9287 56.6615 36.9726 56.3735 37.0603C56.094 37.1393 55.9458 37.2403 55.9288 37.3632C55.9204 37.3983 55.8992 37.4334 55.8653 37.4685C55.8399 37.4948 55.7975 37.508 55.7383 37.508C55.6027 37.508 55.535 37.4378 55.535 37.2973C55.535 37.0691 55.7086 36.8804 56.0559 36.7312C56.4032 36.582 56.8902 36.5074 57.517 36.5074L58.3936 35.0064C58.4529 34.9098 58.5164 34.8045 58.5842 34.6904C58.652 34.5675 58.7282 34.4358 58.8129 34.2954C58.8976 34.1725 58.995 34.111 59.1051 34.111C59.1729 34.111 59.2237 34.133 59.2576 34.1769C59.2915 34.212 59.3084 34.2515 59.3084 34.2954C59.3084 34.427 59.1221 34.7781 58.7494 35.3487C58.2835 36.0597 58.0336 36.4459 57.9998 36.5074C58.1268 36.5074 58.3174 36.5205 58.5715 36.5469C58.8256 36.5644 59.1263 36.5951 59.4736 36.639C59.6006 36.6478 59.6641 36.7136 59.6641 36.8365C59.6641 36.977 59.5879 37.0472 59.4354 37.0472C59.3762 37.0472 59.2576 37.0384 59.0797 37.0208C58.9018 36.9945 58.7113 36.9726 58.508 36.955C58.3047 36.9375 58.1311 36.9331 57.9871 36.9419L57.7965 36.955C56.0771 40.0887 55.2216 42.0373 55.23 42.801L55.2428 42.9063V42.9326C55.2428 43.0731 55.1708 43.1433 55.0268 43.1433Z" fill="#BF9D7D"/>
<path d="M63.5989 42.801C63.5396 42.801 63.4718 42.7702 63.3956 42.7088C63.3194 42.6474 63.2812 42.5815 63.2812 42.5113C63.2812 42.4323 63.3659 42.2304 63.5353 41.9056C63.7047 41.5809 63.9758 41.0937 64.3485 40.4442C64.7211 39.7946 65.2082 38.9519 65.8096 37.9162L67.4739 35.0327C67.5671 34.8571 67.6814 34.6509 67.817 34.4139C67.9525 34.1769 68.1177 33.896 68.3125 33.5712C68.3633 33.4922 68.4183 33.4527 68.4776 33.4527C68.5369 33.4527 68.5962 33.4834 68.6555 33.5449C68.7148 33.5975 68.7444 33.6546 68.7444 33.716C68.7444 33.7512 68.5327 34.1418 68.1092 34.8879C67.6857 35.6252 67.0462 36.7268 66.1907 38.1927C65.8688 38.7457 65.5173 39.3557 65.1362 40.0228C64.7635 40.6899 64.3654 41.4141 63.9419 42.1953C66.3982 41.5106 68.2871 41.1683 69.6084 41.1683C70.0065 41.1683 70.3368 41.2385 70.5994 41.379C70.8704 41.5106 71.006 41.6423 71.006 41.774C71.006 41.9232 70.934 41.9978 70.79 41.9978C70.6714 41.9978 70.6121 41.932 70.6121 41.8003V41.7608C70.5274 41.7169 70.3834 41.6818 70.1801 41.6555C69.9768 41.6291 69.7439 41.616 69.4813 41.616C69.1595 41.616 68.7953 41.6467 68.3887 41.7081C67.9821 41.7608 67.5671 41.831 67.1436 41.9188C66.7286 41.9978 66.3389 42.0812 65.9747 42.169C65.619 42.248 65.2802 42.3314 64.9583 42.4191C64.6449 42.5157 64.3527 42.5991 64.0817 42.6693C63.9207 42.7044 63.8021 42.7351 63.7259 42.7615C63.6581 42.7878 63.6158 42.801 63.5989 42.801Z" fill="#BF9D7D"/>
<path d="M76.7629 42.6825C76.3478 42.6825 76.1403 42.3709 76.1403 41.7476C76.1403 41.4141 76.2166 41.0103 76.369 40.5363C75.3441 41.774 74.5395 42.3928 73.955 42.3928C73.4722 42.3928 73.2308 42.09 73.2308 41.4843C73.2308 41.2561 73.2647 40.984 73.3325 40.668C73.4087 40.3432 73.5061 40.0097 73.6247 39.6673C73.7518 39.325 73.8873 39.0046 74.0313 38.7062C74.1753 38.4077 74.3192 38.1663 74.4632 37.982C74.5141 37.9206 74.5776 37.8898 74.6538 37.8898C74.6962 37.8898 74.7385 37.9074 74.7809 37.9425C74.8232 37.9688 74.8444 38.0127 74.8444 38.0742C74.8444 38.1268 74.8148 38.2015 74.7555 38.298C74.3743 38.9476 74.1033 39.5137 73.9423 39.9965C73.739 40.5495 73.6374 41.0279 73.6374 41.4316C73.6374 41.8091 73.7306 41.9978 73.9169 41.9978C74.0355 41.9978 74.1922 41.9364 74.387 41.8135C74.5818 41.6906 74.7809 41.5414 74.9842 41.3658C75.1959 41.1815 75.378 41.0103 75.5305 40.8523C75.954 40.3871 76.3351 39.8912 76.6739 39.3645C76.8264 39.1187 76.9619 38.8817 77.0805 38.6535C77.2075 38.4165 77.3219 38.1707 77.4235 37.9162C77.4659 37.8196 77.4998 37.7494 77.5252 37.7055C77.5591 37.6528 77.6056 37.6265 77.6649 37.6265C77.8428 37.6265 77.9317 37.6967 77.9317 37.8372C77.9317 37.925 77.9021 37.9864 77.8428 38.0215C76.9789 39.8385 76.5469 41.0893 76.5469 41.774C76.5469 41.9583 76.5638 42.09 76.5977 42.169C76.6316 42.2392 76.6909 42.2743 76.7756 42.2743C76.8942 42.2743 77.0763 42.1953 77.3219 42.0373C77.576 41.8793 77.8725 41.6379 78.2113 41.3131L79.5453 40.0492C79.6131 39.9789 79.6766 39.9438 79.7359 39.9438C79.8714 39.9438 79.9392 40.0097 79.9392 40.1413C79.9392 40.2554 79.6723 40.5627 79.1387 41.063C78.91 41.2824 78.7068 41.4668 78.5289 41.616C78.351 41.7652 78.1858 41.8969 78.0334 42.011C77.7454 42.2216 77.4913 42.384 77.2711 42.4981C77.0509 42.621 76.8815 42.6825 76.7629 42.6825Z" fill="#BF9D7D"/>
<path d="M79.6565 42.564C79.5125 42.564 79.4405 42.4937 79.4405 42.3533C79.4405 42.2831 79.5421 42.1339 79.7454 41.9056C79.9572 41.6686 80.279 41.3614 80.711 40.984L82.2356 39.641C82.1763 39.404 82.1213 39.1933 82.0704 39.009C82.0281 38.8247 81.9857 38.6711 81.9434 38.5482C81.7825 38.0391 81.6385 37.7187 81.5114 37.587C81.4606 37.5343 81.4352 37.4773 81.4352 37.4158C81.4352 37.2842 81.4987 37.2183 81.6258 37.2183C81.8206 37.2183 82.0239 37.5256 82.2356 38.14C82.3034 38.3419 82.3669 38.5438 82.4262 38.7457C82.4855 38.9476 82.5448 39.1494 82.6041 39.3513C83.5273 38.5613 84.1287 38.0171 84.4082 37.7187C84.4759 37.6485 84.5225 37.5958 84.5479 37.5607C84.5734 37.5256 84.5903 37.4948 84.5988 37.4685C84.6411 37.372 84.7131 37.3237 84.8147 37.3237C84.9503 37.3237 85.018 37.3895 85.018 37.5212C85.018 37.7845 84.2557 38.535 82.7311 39.7727C82.8327 40.1413 82.9386 40.488 83.0487 40.8128C83.1588 41.1376 83.2859 41.4053 83.4299 41.616C83.5824 41.8179 83.7518 41.9188 83.9381 41.9188C84.116 41.9188 84.3023 41.8705 84.4971 41.774C84.7004 41.6774 84.9037 41.5589 85.107 41.4185C85.3102 41.2693 85.4924 41.1288 85.6533 40.9971C85.9582 40.7514 86.1869 40.5539 86.3394 40.4047C86.4918 40.2554 86.657 40.0974 86.8349 39.9307C86.8857 39.8955 86.9323 39.878 86.9746 39.878C87.017 39.878 87.0593 39.8912 87.1017 39.9175C87.144 39.9438 87.1652 39.9833 87.1652 40.036C87.1652 40.1325 87.0805 40.2686 86.9111 40.4442C86.7671 40.5846 86.6146 40.7338 86.4537 40.8918C86.2928 41.041 86.0387 41.2517 85.6914 41.5238C85.5389 41.6467 85.3568 41.7696 85.1451 41.8925C84.9418 42.0154 84.7343 42.1163 84.5225 42.1953C84.3192 42.2743 84.1329 42.3138 83.9635 42.3138C83.6755 42.3138 83.4299 42.2085 83.2266 41.9978C83.0318 41.7784 82.8666 41.4975 82.7311 41.1551C82.5956 40.8128 82.4728 40.4529 82.3627 40.0755L81.054 41.2341C80.7915 41.4624 80.5585 41.6818 80.3552 41.8925C80.152 42.1031 79.9741 42.3006 79.8216 42.485C79.7878 42.5376 79.7327 42.564 79.6565 42.564Z" fill="#BF9D7D"/>
<path d="M91.215 42.6825C90.7999 42.6825 90.5924 42.3709 90.5924 41.7476C90.5924 41.4141 90.6686 41.0103 90.8211 40.5363C89.7962 41.774 88.9916 42.3928 88.4071 42.3928C87.9243 42.3928 87.6829 42.09 87.6829 41.4843C87.6829 41.2561 87.7168 40.984 87.7846 40.668C87.8608 40.3432 87.9582 40.0097 88.0768 39.6673C88.2038 39.325 88.3394 39.0046 88.4834 38.7062C88.6273 38.4077 88.7713 38.1663 88.9153 37.982C88.9662 37.9206 89.0297 37.8898 89.1059 37.8898C89.1483 37.8898 89.1906 37.9074 89.233 37.9425C89.2753 37.9688 89.2965 38.0127 89.2965 38.0742C89.2965 38.1268 89.2668 38.2015 89.2075 38.298C88.8264 38.9476 88.5554 39.5137 88.3944 39.9965C88.1911 40.5495 88.0895 41.0279 88.0895 41.4316C88.0895 41.8091 88.1827 41.9978 88.369 41.9978C88.4876 41.9978 88.6443 41.9364 88.8391 41.8135C89.0339 41.6906 89.233 41.5414 89.4362 41.3658C89.648 41.1815 89.8301 41.0103 89.9826 40.8523C90.4061 40.3871 90.7872 39.8912 91.126 39.3645C91.2785 39.1187 91.414 38.8817 91.5326 38.6535C91.6596 38.4165 91.774 38.1707 91.8756 37.9162C91.918 37.8196 91.9519 37.7494 91.9773 37.7055C92.0111 37.6528 92.0577 37.6265 92.117 37.6265C92.2949 37.6265 92.3838 37.6967 92.3838 37.8372C92.3838 37.925 92.3542 37.9864 92.2949 38.0215C91.431 39.8385 90.999 41.0893 90.999 41.774C90.999 41.9583 91.0159 42.09 91.0498 42.169C91.0837 42.2392 91.143 42.2743 91.2277 42.2743C91.3462 42.2743 91.5284 42.1953 91.774 42.0373C92.0281 41.8793 92.3245 41.6379 92.6633 41.3131L93.9974 40.0492C94.0651 39.9789 94.1287 39.9438 94.188 39.9438C94.3235 39.9438 94.3913 40.0097 94.3913 40.1413C94.3913 40.2554 94.1244 40.5627 93.5908 41.063C93.3621 41.2824 93.1589 41.4668 92.981 41.616C92.8031 41.7652 92.6379 41.8969 92.4855 42.011C92.1975 42.2216 91.9434 42.384 91.7232 42.4981C91.5029 42.621 91.3335 42.6825 91.215 42.6825Z" fill="#BF9D7D"/>
<path d="M94.4516 42.564C94.3161 42.564 94.2483 42.5069 94.2483 42.3928C94.2483 42.3401 94.261 42.2875 94.2864 42.2348C94.3203 42.1821 94.3457 42.1383 94.3626 42.1031L95.5188 39.6805C96.0101 38.6447 96.2557 38.0698 96.2557 37.9557C96.2557 37.8328 96.315 37.7713 96.4336 37.7713C96.5945 37.7713 96.675 37.8547 96.675 38.0215C96.675 38.1093 96.6369 38.2497 96.5606 38.4428C96.4844 38.6359 96.387 38.8598 96.2684 39.1143C96.0651 39.5708 95.8957 39.9219 95.7602 40.1677C96.0143 39.8604 96.2727 39.5708 96.5352 39.2987C96.7978 39.0266 97.0646 38.7676 97.3357 38.5218C98.1403 37.7933 98.7586 37.429 99.1906 37.429C99.4871 37.429 99.6353 37.5738 99.6353 37.8635C99.6353 38.1444 99.5463 38.2848 99.3685 38.2848C99.2838 38.2848 99.2202 38.2102 99.1779 38.061C99.1525 37.9557 99.0932 37.903 99 37.903C98.856 37.903 98.5765 38.0654 98.1615 38.3902C97.7041 38.7413 97.2425 39.1582 96.7766 39.641C96.3192 40.1238 95.8322 40.7382 95.3155 41.4843L94.6803 42.406C94.6464 42.4499 94.6125 42.485 94.5786 42.5113C94.5532 42.5464 94.5109 42.564 94.4516 42.564Z" fill="#BF9D7D"/>
<path d="M100.071 46.5929C99.5543 46.5929 99.2959 46.2769 99.2959 45.6449C99.2959 45.1095 99.406 44.5916 99.6263 44.0913C99.6601 44.0035 99.7152 43.9596 99.7914 43.9596C99.9439 43.9596 100.02 44.0298 100.02 44.1703C100.02 44.2054 100.007 44.2493 99.982 44.302C99.9651 44.3634 99.9439 44.4292 99.9185 44.4995C99.8592 44.6662 99.8126 44.8418 99.7787 45.0261C99.7448 45.2104 99.7279 45.4036 99.7279 45.6054C99.7279 45.8337 99.7576 45.9873 99.8168 46.0663C99.8761 46.1453 99.9524 46.1848 100.046 46.1848C100.266 46.1848 100.524 46.0794 100.821 45.8688C101.125 45.6581 101.439 45.3246 101.761 44.8681C101.989 44.5433 102.227 44.1571 102.472 43.7095C102.718 43.2618 102.98 42.7483 103.26 42.169C103.633 41.4053 103.976 40.6285 104.289 39.8385C104.077 40.1194 103.857 40.3915 103.628 40.6548C103.4 40.9182 103.154 41.1639 102.891 41.3921C102.188 42.0154 101.604 42.327 101.138 42.327C100.579 42.327 100.3 41.9934 100.3 41.3263C100.3 41.0893 100.342 40.804 100.427 40.4705C100.52 40.1369 100.647 39.7551 100.808 39.325C100.833 39.2548 100.846 39.1977 100.846 39.1538C100.846 39.1012 100.859 39.0485 100.884 38.9958C101.02 38.6886 101.244 38.3463 101.557 37.9688C101.625 37.8898 101.684 37.8503 101.735 37.8503C101.862 37.8503 101.926 37.9469 101.926 38.14C101.104 39.3952 100.693 40.4573 100.693 41.3263C100.693 41.695 100.833 41.8793 101.113 41.8793C101.426 41.8793 101.862 41.6555 102.421 41.2078C102.819 40.8918 103.188 40.5363 103.527 40.1413C103.866 39.7375 104.17 39.3206 104.442 38.8905C104.628 38.6008 104.776 38.3463 104.886 38.1268C105.005 37.8986 105.077 37.745 105.102 37.666C105.145 37.5343 105.204 37.4685 105.28 37.4685C105.441 37.4685 105.521 37.5387 105.521 37.6792C105.521 37.7494 105.488 37.8767 105.42 38.061C105.361 38.2366 105.284 38.4472 105.191 38.693C105.056 39.0529 104.861 39.5357 104.607 40.1413C104.353 40.747 104.035 41.4668 103.654 42.3006C103.179 43.3364 102.714 44.1835 102.256 44.8418C101.917 45.3421 101.545 45.7591 101.138 46.0926C100.74 46.4262 100.384 46.5929 100.071 46.5929Z" fill="#BF9D7D"/>
<path d="M111.685 43.5251C111.524 43.5251 111.443 43.4505 111.443 43.3013C111.443 42.2655 112.028 40.6504 113.197 38.456C113.281 38.298 113.413 38.0654 113.59 37.7582C113.303 37.7933 113.061 37.8591 112.866 37.9557C112.68 38.0435 112.557 38.0873 112.498 38.0873C112.345 38.0873 112.269 38.0127 112.269 37.8635C112.269 37.6353 112.794 37.4378 113.845 37.271C113.989 37.0165 114.171 36.7005 114.391 36.323C114.62 35.9456 114.891 35.5023 115.204 34.9932C115.433 34.6158 115.628 34.2866 115.788 34.0057C115.949 33.716 116.081 33.4527 116.182 33.2157C116.216 33.1279 116.271 33.084 116.348 33.084C116.508 33.084 116.589 33.1718 116.589 33.3474C116.589 33.4088 116.487 33.6151 116.284 33.9662C116.089 34.3085 115.78 34.8352 115.357 35.5462L114.353 37.2183C114.675 37.1832 115.013 37.1569 115.369 37.1393C115.725 37.1218 116.089 37.113 116.462 37.113C117.207 37.113 118.575 37.1788 120.566 37.3105C120.735 36.9331 120.913 36.5644 121.099 36.2045C121.294 35.8359 121.497 35.4716 121.709 35.1117C122.014 34.5763 122.281 34.1593 122.51 33.8609C122.738 33.5537 122.908 33.3562 123.018 33.2684C123.128 33.1806 123.217 33.1367 123.285 33.1367C123.412 33.1367 123.475 33.2069 123.475 33.3474C123.475 33.4176 123.437 33.479 123.361 33.5317C123.208 33.6458 123.022 33.8521 122.802 34.1505C122.581 34.449 122.336 34.8396 122.065 35.3224C121.658 36.0334 121.311 36.7092 121.023 37.35C121.319 37.35 121.468 37.4246 121.468 37.5738C121.468 37.6353 121.447 37.688 121.404 37.7318C121.362 37.7757 121.298 37.7933 121.214 37.7845L120.832 37.7582C119.977 39.7332 119.549 41.0849 119.549 41.8135V42.1031C119.549 42.2085 119.477 42.2611 119.333 42.2611C119.198 42.2611 119.13 42.1075 119.13 41.8003C119.13 41.0279 119.545 39.6673 120.375 37.7187C119.342 37.6572 118.49 37.6133 117.821 37.587C117.161 37.5607 116.682 37.5475 116.386 37.5475C115.556 37.5475 114.797 37.587 114.111 37.666L113.565 38.6535C113.15 39.4172 112.824 40.1018 112.587 40.7075C112.35 41.3044 112.189 41.752 112.104 42.0505C112.019 42.3928 111.964 42.6561 111.939 42.8405C111.913 43.0248 111.892 43.196 111.875 43.354C111.867 43.4681 111.803 43.5251 111.685 43.5251Z" fill="#BF9D7D"/>
<path d="M124.755 42.169C124.069 42.169 123.726 41.7696 123.726 40.9708C123.726 40.6022 123.811 40.2159 123.98 39.8122C124.15 39.4084 124.374 39.0353 124.653 38.693C124.933 38.3419 125.242 38.0566 125.581 37.8372C125.928 37.6177 126.28 37.508 126.635 37.508C126.949 37.508 127.178 37.6309 127.322 37.8767C127.466 38.1225 127.538 38.3946 127.538 38.693C127.538 39.088 127.461 39.4918 127.309 39.9043C127.156 40.3081 126.949 40.6812 126.686 41.0235C126.424 41.3658 126.127 41.6423 125.797 41.853C125.467 42.0636 125.119 42.169 124.755 42.169ZM124.742 41.7476C124.793 41.7476 124.823 41.7433 124.831 41.7345C125.162 41.6906 125.467 41.5677 125.746 41.3658C126.026 41.1639 126.267 40.9138 126.47 40.6153C126.682 40.3081 126.843 39.9789 126.953 39.6278C127.063 39.2767 127.118 38.93 127.118 38.5877C127.118 38.3858 127.063 38.2278 126.953 38.1137C126.843 37.9996 126.703 37.9425 126.534 37.9425C126.288 37.9425 126.026 38.0478 125.746 38.2585C125.475 38.4692 125.217 38.7369 124.971 39.0617C124.734 39.3864 124.539 39.7288 124.387 40.0887C124.234 40.4398 124.158 40.7558 124.158 41.0367C124.158 41.5106 124.353 41.7476 124.742 41.7476Z" fill="#BF9D7D"/>
<path d="M129.24 43.1433C129.079 43.1433 128.999 43.0116 128.999 42.7483C128.999 42.3621 129.206 41.6862 129.621 40.7207C130.045 39.7551 130.672 38.4911 131.502 36.9287C131.18 36.9287 130.875 36.9726 130.587 37.0603C130.307 37.1393 130.159 37.2403 130.142 37.3632C130.134 37.3983 130.113 37.4334 130.079 37.4685C130.053 37.4948 130.011 37.508 129.952 37.508C129.816 37.508 129.748 37.4378 129.748 37.2973C129.748 37.0691 129.922 36.8804 130.269 36.7312C130.617 36.582 131.104 36.5074 131.73 36.5074L132.607 35.0064C132.666 34.9098 132.73 34.8045 132.798 34.6904C132.865 34.5675 132.942 34.4358 133.026 34.2954C133.111 34.1725 133.208 34.111 133.318 34.111C133.386 34.111 133.437 34.133 133.471 34.1769C133.505 34.212 133.522 34.2515 133.522 34.2954C133.522 34.427 133.335 34.7781 132.963 35.3487C132.497 36.0597 132.247 36.4459 132.213 36.5074C132.34 36.5074 132.531 36.5205 132.785 36.5469C133.039 36.5644 133.34 36.5951 133.687 36.639C133.814 36.6478 133.878 36.7136 133.878 36.8365C133.878 36.977 133.801 37.0472 133.649 37.0472C133.59 37.0472 133.471 37.0384 133.293 37.0208C133.115 36.9945 132.925 36.9726 132.721 36.955C132.518 36.9375 132.344 36.9331 132.2 36.9419L132.01 36.955C130.29 40.0887 129.435 42.0373 129.443 42.801L129.456 42.9063V42.9326C129.456 43.0731 129.384 43.1433 129.24 43.1433Z" fill="#BF9D7D"/>
<path d="M134.672 42.4718C134.316 42.4718 134.037 42.3445 133.833 42.09C133.63 41.8354 133.528 41.5238 133.528 41.1551C133.528 40.5232 133.732 39.8736 134.138 39.2065C134.248 39.0222 134.375 38.8422 134.519 38.6667C134.663 38.4823 134.82 38.3068 134.989 38.14C135.244 37.8855 135.51 37.6748 135.79 37.508C136.069 37.3412 136.34 37.2578 136.603 37.2578C137.035 37.2578 137.251 37.4685 137.251 37.8898C137.251 38.4165 136.954 38.8949 136.362 39.325C135.811 39.7112 135.269 39.9043 134.735 39.9043C134.642 39.9043 134.557 39.8999 134.481 39.8912C134.413 39.8736 134.35 39.856 134.291 39.8385C134.206 40.0053 134.13 40.2203 134.062 40.4837C133.994 40.747 133.96 40.9752 133.96 41.1683C133.96 41.7476 134.206 42.0373 134.697 42.0373C135.095 42.0373 135.472 41.9671 135.828 41.8266C136.184 41.6774 136.607 41.4009 137.098 40.9971C137.403 40.7514 137.632 40.5539 137.785 40.4047C137.937 40.2554 138.102 40.0974 138.28 39.9307C138.331 39.8955 138.377 39.878 138.42 39.878C138.462 39.878 138.505 39.8912 138.547 39.9175C138.589 39.9438 138.61 39.9833 138.61 40.036C138.61 40.1325 138.526 40.2686 138.356 40.4442C138.212 40.5846 138.06 40.7338 137.899 40.8918C137.738 41.041 137.484 41.2517 137.137 41.5238C136.764 41.8223 136.357 42.0549 135.917 42.2216C135.476 42.3884 135.061 42.4718 134.672 42.4718ZM134.659 39.483C134.93 39.483 135.188 39.4391 135.434 39.3513C135.68 39.2636 135.913 39.1363 136.133 38.9695C136.624 38.5921 136.87 38.2366 136.87 37.903C136.87 37.7538 136.781 37.6792 136.603 37.6792C136.264 37.6792 135.87 37.8942 135.421 38.3243C135.201 38.535 135.019 38.7281 134.875 38.9037C134.74 39.0704 134.612 39.2548 134.494 39.4567C134.545 39.4742 134.6 39.483 134.659 39.483Z" fill="#BF9D7D"/>
<path d="M140.523 42.5903C140.134 42.5903 139.833 42.4674 139.621 42.2216C139.418 41.9671 139.316 41.6335 139.316 41.221C139.316 40.9225 139.367 40.5627 139.469 40.1413C139.647 39.4303 139.947 38.6052 140.371 37.666C140.701 36.955 141.057 36.2572 141.438 35.5725C141.819 34.8791 142.238 34.1988 142.696 33.5317C143.424 32.4608 143.933 31.9254 144.22 31.9254C144.407 31.9254 144.5 31.9781 144.5 32.0834C144.5 32.2326 144.263 32.6057 143.789 33.2025L142.899 34.3217C142.128 35.2873 141.497 36.2747 141.006 37.2842C140.523 38.2936 140.146 39.3031 139.875 40.3125C139.799 40.6022 139.761 40.8743 139.761 41.1288C139.761 41.7959 140.024 42.1295 140.549 42.1295C140.735 42.1295 140.926 42.0724 141.12 41.9583C141.315 41.853 141.421 41.8003 141.438 41.8003C141.54 41.8003 141.591 41.8749 141.591 42.0241C141.591 42.1558 141.544 42.2568 141.451 42.327C141.163 42.5025 140.854 42.5903 140.523 42.5903Z" fill="#BF9D7D"/>
</svg>
